<svg id="Capa_1" data-name="Capa 1" xmlns="http://www.w3.org/2000/svg" xmlns:xlink="http://www.w3.org/1999/xlink" viewBox="0 0 612 612"><defs><style>.cls-1{fill:none;}.cls-2{fill:url(#radial-gradient);}.cls-3{clip-path:url(#clip-path);}.cls-4{fill:#fff;}.cls-5{fill:#e9bc00;}</style><radialGradient id="radial-gradient" cx="302.82" cy="197.33" r="411.98" gradientUnits="userSpaceOnUse"><stop offset="0" stop-color="#3a589e"/><stop offset="0.3" stop-color="#2b4d88"/><stop offset="0.91" stop-color="#063251"/><stop offset="1" stop-color="#002e48"/></radialGradient><clipPath id="clip-path"><circle class="cls-1" cx="306" cy="306" r="305.38"/></clipPath></defs><title>Mesa de trabajo 1</title><circle class="cls-2" cx="306" cy="306" r="305.38"/><g class="cls-3"><path class="cls-4" d="M211.48,375.21H177.95c-10,0-18.86-3.67-24.89-9.69l-11,62.87c-.79,3.93-4.72,7.34-8.65,7.34a6,6,0,0,1-6-7.34l27-153c3.93-22.79,25.41-41.13,48.2-41.13h33.8c11,0,20.43,4.45,26.72,12.05,6.29,7.86,8.65,18.08,6.81,29.08l-10.48,58.68C255.49,356.87,234,375.21,211.48,375.21Zm43.75-99.81c2.62-14.67-7.34-26.46-21.74-26.46H200c-14.67,0-28.29,11.79-30.91,26.46l-10.48,58.68c-2.62,14.67,7.07,26.46,21.74,26.46h33.53c14.41,0,28.29-11.79,30.91-26.46Z"/><path class="cls-4" d="M271.48,375.21a6,6,0,0,1-6-7.07,8.91,8.91,0,0,1,8.38-7.07h66.28c14.15,0,27.77-11.27,30.13-25.41,2.36-13.88-7.07-25.41-21.22-25.41H312.35c-21,0-35.1-17-31.44-38s23.84-38,44.8-38h61.57c3.93,0,6.29,2.88,5.76,6.81a8.63,8.63,0,0,1-8.12,7.07H323.35c-13.36,0-26.2,10.74-28.55,24.1-2.36,13.1,6.81,24.1,20.17,24.1h36.68c10.48,0,19.65,3.93,25.93,11.53,6.29,7.34,8.38,17.29,6.55,27.77-3.93,21.74-24.62,39.56-46.37,39.56Z"/><path class="cls-4" d="M429.2,375.21c-22.79,0-38.25-18.6-34.32-41.39l10.48-58.42c3.93-22.79,25.67-41.13,48.47-41.13h34.05c22.79,0,38.25,18.34,34.32,41.13l-5.5,30.13a8.41,8.41,0,0,1-8.12,7.07H412.69l-3.93,21.22c-2.62,14.93,7.6,27.25,22.79,27.25h66.28c3.67,0,6.29,3.14,5.5,7.07a8.11,8.11,0,0,1-7.86,6.81Zm22.27-127.06c-15.19,0-29.6,12.31-32.22,27.25L415,298.45h89.07l4.19-23.05c2.62-14.93-7.6-27.25-22.79-27.25Z"/><polygon class="cls-5" points="-12.16 266.5 36.38 266.5 60.66 297.56 -44.16 297.56 -44.16 306.88 90.5 306.88 73.39 341.05 39.71 341.05 39.71 350.37 78.68 350.37 101.15 306.88 138.27 306.88 140.15 297.56 74.54 297.56 41.58 257.18 -13.54 257.18 -12.16 266.5"/><circle class="cls-5" cx="4.2" cy="218.24" r="14.14"/><circle class="cls-5" cx="4.2" cy="387.86" r="11.31"/><circle class="cls-5" cx="32.14" cy="176.34" r="14.14"/><circle class="cls-5" cx="32.14" cy="347.95" r="14.14"/><circle class="cls-5" cx="32.14" cy="431.76" r="14.14"/><circle class="cls-5" cx="60.07" cy="218.24" r="14.14"/><circle class="cls-5" cx="60.07" cy="387.86" r="14.14"/><path class="cls-4" d="M174.25,219a6.62,6.62,0,0,1-6.68-8.06,10.09,10.09,0,0,1,9.49-8.06h11.42l.61-3.32a4.36,4.36,0,0,0-4.39-5.3H173.49a1.09,1.09,0,0,1-1.07-1.38,1.58,1.58,0,0,1,1.53-1.33h11.22a6.55,6.55,0,0,1,6.63,8l-3.21,18.05a1.59,1.59,0,0,1-1.53,1.38Zm2.35-13.41a6.73,6.73,0,0,0-6.32,5.35,4.37,4.37,0,0,0,4.44,5.3h11.42L188,205.62Z"/><path class="cls-4" d="M212.81,217.71a1.73,1.73,0,0,1-1.63,1.38L198.89,219a6.61,6.61,0,0,1-5.2-2.35,6.9,6.9,0,0,1-1.38-5.66l2-11.37a9.75,9.75,0,0,1,3.32-5.66,9.5,9.5,0,0,1,6-2.35H216A1.12,1.12,0,0,1,217.2,193a1.73,1.73,0,0,1-1.63,1.38H203.33a6.63,6.63,0,0,0-6.27,5.31L195,211a4.37,4.37,0,0,0,4.44,5.3h12.24A1.1,1.1,0,0,1,212.81,217.71Z"/><path class="cls-4" d="M240.82,199.6l-3.21,18A1.7,1.7,0,0,1,236,219a1.24,1.24,0,0,1-1.22-1.43l3.21-18a4.21,4.21,0,0,0-4.23-5.15H227.2a6.35,6.35,0,0,0-6,5.15l-3.21,18a1.74,1.74,0,0,1-1.63,1.43,1.24,1.24,0,0,1-1.22-1.43l6.43-36.36a1.84,1.84,0,0,1,1.68-1.43,1.18,1.18,0,0,1,1.17,1.43l-2.14,12.24a9.3,9.3,0,0,1,5.46-1.89h6.53A6.54,6.54,0,0,1,240.82,199.6Z"/></g></svg>